<svg id="Layer_1" data-name="Layer 1" xmlns="http://www.w3.org/2000/svg" viewBox="0 0 559.06 92.47"><path d="M512.56,8.08a39.44,39.44,0,0,1,39.55,40.33c-.33,21.66-18.53,39.57-39.89,39.28a40,40,0,0,1-39.43-40.64A39.22,39.22,0,0,1,512.56,8.08Zm-.16,61.53A22,22,0,0,0,534.3,47.7c.14-11.84-9.88-21.83-21.93-21.87a22.12,22.12,0,0,0-22,21.9A22.24,22.24,0,0,0,512.4,69.61Z"/><path d="M387.57,18.56,376.33,31.73c-7.85-5.56-16.25-7.7-25.35-6.16-3.82.65-9,1.45-8.75,6.39s5.59,4.18,9.23,4.53c7.11.69,14.34.6,21.34,1.86,12.21,2.21,18.06,7.8,19.42,17.14,1.7,11.67-2.36,20.94-12.77,26.43-16,8.41-43.07,9.24-58.72-10.81l12.81-12.33a43.48,43.48,0,0,0,2.87,3.31,28.76,28.76,0,0,0,32.84,5.56c3.33-1.6,6.17-3.77,5.62-7.93s-4.14-4.47-7.24-4.77c-8.1-.79-16.29-.9-24.34-2-11-1.55-18.05-8.19-19.38-17.32-1.54-10.56,3-18.64,13.32-23.86C351.06,4.75,376.37,8,387.57,18.56Z"/><path d="M163.91,70.54l12.47-12.28c1.14,1.24,2.32,2.63,3.61,3.89a28.67,28.67,0,0,0,32.84,5.51c3.3-1.6,6.69-4.12,5.48-7.84-.71-2.18-4.45-4.36-7.08-4.73-8.21-1.15-16.63-.91-24.8-2.2-12.82-2-19.42-10.17-19.14-22.17.19-8.4,4.77-13.92,11.6-18,13.61-8.06,39.85-5.34,52.36,5.77-3.73,4.33-7.48,8.67-11.47,13.28a30,30,0,0,0-20.56-6.6c-3.84.19-7.69,1.67-11.34,3.08a4.62,4.62,0,0,0-2.2,3.87,5.14,5.14,0,0,0,3.14,3.29,39.21,39.21,0,0,0,7.84,1.12c6.78.64,13.64.71,20.32,1.89,11.5,2,17,7.48,18.71,17.19,1.82,10.62-2.28,20.19-11.45,25.62C209.54,90,180.18,92,163.91,70.54Z"/><path d="M82.62,18.3C78.54,23,74.86,27.28,71,31.8a34.75,34.75,0,0,0-23.45-5.92C35.14,27,26.05,35.91,25.79,47.27c-.26,11.56,8.7,20.74,21.4,22.18,9.65,1.09,18-1.73,25.61-8.12l10,14.33C76.32,82.12,68.56,85.36,60,86.58c-17.82,2.54-33.8-1.32-45.11-16.23C-1.86,48.24,10.45,16.19,38.06,9.72,53.81,6,68.78,8,82.62,18.3Z"/><path d="M472.19,18.62,460.74,31.74a34.89,34.89,0,0,0-23-5.87c-13,1.16-22.24,10.21-22.17,21.94S425,68.58,438,69.56c9.1.69,17.1-1.81,24.53-8.31,3.39,4.81,6.68,9.48,10.21,14.47A40.69,40.69,0,0,1,451,86.38c-12.54,2.21-24.52.75-35.53-6.1a38.32,38.32,0,0,1,.13-65.36C432.25,4.62,458.73,6.19,472.19,18.62Z"/><path d="M321.15,85.17c-5.79,0-11.16.46-16.38-.24-1.94-.27-4.27-3-5.12-5.06-2-4.87-5.14-6.33-10.09-5.84-13.27,1.33-26.53,2.42-38,10.34-1.31.9-3.47.74-5.25.78-4,.11-7.95,0-12.87,0,2.23-4.29,4.09-7.92,6-11.51C250.34,53.1,261.22,32.51,272.31,12A6.7,6.7,0,0,1,277,8.85c1.88,0,4.73,1.12,5.54,2.63,12.78,23.73,25.3,47.6,37.87,71.45A19.29,19.29,0,0,1,321.15,85.17ZM277,32.64c-5.91,11.4-11.27,21.75-16.59,32l30.36-5.74C286.35,50.5,281.94,42.08,277,32.64Z"/><path d="M122.59,8.05a39.33,39.33,0,0,0-40,39.2c-.14,22.33,17.08,40,39.52,40.46,21.29.46,40.18-18.51,40-40.22A39.86,39.86,0,0,0,122.59,8.05Zm-.24,62.07a22.24,22.24,0,1,1,22.23-22.24A22.24,22.24,0,0,1,122.35,70.12Z"/></svg>